<svg id="레이어_1" data-name="레이어 1" xmlns="http://www.w3.org/2000/svg" viewBox="0 0 97.08 39.28"><title>logo</title><path d="M.16,14.81c.73,0,3.75-.08,7.54-.08,0-1.51,0-3.11.09-4.27a52,52,0,0,1,7.28,0c.09,1.12.09,2.71.09,4.27,5.68,0,11.07,0,12.28.08a44.31,44.31,0,0,1,0,6.72c-2.68.09-25.08.09-27.28,0A35.92,35.92,0,0,1,.16,14.81Z"/><path d="M1.54,1.8c2.2-.35,22.53-.35,24.43,0,.17,1.77.17,10,0,10.9a69.68,69.68,0,0,1-7.37,0c0-.82,0-3.1,0-4.35-1.94.13-15.12.13-17.06,0A42.1,42.1,0,0,1,1.54,1.8Z"/><path d="M13.78,23C5.07,23,.42,25.8.42,31.14s4.65,8.14,13.36,8.14,13.35-2.8,13.35-8.14S22.48,23,13.78,23Zm0,10.21c-3.79,0-5.86-.69-5.86-2.07s2.07-2.07,5.86-2.07,5.86.69,5.86,2.07S17.57,33.21,13.78,33.21Z"/><path d="M29.54,2.79c.86,0,3.36-.09,6.29-.09,0-.86,0-1.72.08-2.54a42.14,42.14,0,0,1,7.28,0,23.47,23.47,0,0,1,.13,2.54c2.68,0,5,0,5.91.09a46,46,0,0,1,0,6c-2.76.13-17.28.13-19.69,0A19.41,19.41,0,0,1,29.54,2.79Z"/><path d="M39.58,9.64c-6.08,0-9.7,2.76-9.7,6.81s3.62,6.81,9.7,6.81,9.69-2.76,9.69-6.81S45.65,9.64,39.58,9.64Zm0,8.32c-2.16,0-3.19-.61-3.19-1.51s1-1.51,3.19-1.51,3.18.6,3.18,1.51S41.73,18,39.58,18Z"/><path d="M49,23.86c-14.22,0-18.27,3.14-18.27,7.5S34.79,38.85,49,38.85s18.27-3.14,18.27-7.49S63.23,23.86,49,23.86Zm0,9c-9.43,0-10.73-.6-10.73-1.5s1.3-1.51,10.73-1.51,10.73.6,10.73,1.51S58.45,32.86,49,32.86Z"/><path d="M50.61,1.37a35.11,35.11,0,0,1,6.8,0c.05.77.09,4.09.09,7.93h2.11c0-3.93,0-7.33,0-8.1a31.33,31.33,0,0,1,7,0c.26,1.89.26,18.74,0,22.06a38.73,38.73,0,0,1-7,0l0-7.37H57.5c0,3,0,5.51-.09,6.63a29.67,29.67,0,0,1-6.8,0C50.43,19.21,50.43,3.18,50.61,1.37Z"/><path d="M69.68,14.81c.73,0,3.75-.08,7.54-.08,0-1.51,0-3.11.08-4.27a52.16,52.16,0,0,1,7.29,0c.08,1.12.08,2.71.08,4.27,5.69,0,11.08,0,12.28.08a43,43,0,0,1,0,6.72c-2.67.09-25.07.09-27.27,0A34.29,34.29,0,0,1,69.68,14.81Z"/><path d="M71.06,1.8c2.19-.35,22.53-.35,24.43,0,.17,1.77.17,10,0,10.9a69.68,69.68,0,0,1-7.37,0c0-.82,0-3.1,0-4.35-1.94.13-15.12.13-17.06,0A42.1,42.1,0,0,1,71.06,1.8Z"/><path d="M83.29,23c-8.7,0-13.35,2.8-13.35,8.14s4.65,8.14,13.35,8.14,13.36-2.8,13.36-8.14S92,23,83.29,23Zm0,10.21c-3.79,0-5.86-.69-5.86-2.07s2.07-2.07,5.86-2.07,5.86.69,5.86,2.07S87.09,33.21,83.29,33.21Z"/></svg>