<?xml version="1.0" encoding="utf-8"?>
<!-- Generator: Adobe Illustrator 23.0.3, SVG Export Plug-In . SVG Version: 6.00 Build 0)  -->
<svg version="1.1" id="PROJECT_LOGO" xmlns="http://www.w3.org/2000/svg" xmlns:xlink="http://www.w3.org/1999/xlink" x="0px"
	 y="0px" viewBox="0 0 97.08 39.28" style="enable-background:new 0 0 97.08 39.28;" xml:space="preserve">
	<g>
		<path d="M0.16,14.81c0.73-0.04,3.75-0.09,7.54-0.09c0-1.51,0-3.1,0.09-4.27c1.55-0.17,5.82-0.17,7.28,0
			c0.09,1.12,0.09,2.71,0.09,4.27c5.69,0,11.07,0.04,12.28,0.09c0.13,2.03,0.22,4.91,0,6.72c-2.67,0.09-25.08,0.09-27.27,0
			C-0.05,19.64-0.05,16.79,0.16,14.81z"/>
		<path d="M1.54,1.8c2.2-0.34,22.54-0.34,24.43,0c0.17,1.77,0.17,9.95,0,10.9c-1.77,0.13-5.56,0.13-7.37,0c0-0.82-0.04-3.1,0-4.35
			c-1.94,0.13-15.12,0.13-17.06,0C1.37,7.31,1.37,3.05,1.54,1.8z"/>
		<path d="M13.78,23c-8.7,0-13.36,2.8-13.36,8.14s4.65,8.14,13.36,8.14c8.7,0,13.36-2.8,13.36-8.14S22.48,23,13.78,23z M13.78,33.21
			c-3.79,0-5.86-0.69-5.86-2.07s2.07-2.07,5.86-2.07c3.79,0,5.86,0.69,5.86,2.07S17.57,33.21,13.78,33.21z"/>
		<path d="M29.54,2.79C30.4,2.75,32.9,2.7,35.83,2.7c0-0.86,0.04-1.72,0.09-2.54c1.51-0.22,5.82-0.22,7.28,0
			c0.09,0.82,0.13,1.68,0.13,2.54c2.67,0,4.96,0.04,5.9,0.09c0.13,0.82,0.13,4.91,0,5.99c-2.76,0.13-17.28,0.13-19.69,0
			C29.23,7.83,29.23,3.74,29.54,2.79z"/>
		<path d="M39.58,9.64c-6.08,0-9.69,2.76-9.69,6.81s3.62,6.81,9.69,6.81s9.69-2.76,9.69-6.81S45.65,9.64,39.58,9.64z M39.58,17.96
			c-2.15,0-3.19-0.6-3.19-1.51c0-0.9,1.03-1.51,3.19-1.51c2.15,0,3.19,0.6,3.19,1.51C42.76,17.35,41.73,17.96,39.58,17.96z"/>
		<path d="M49.01,23.86c-14.22,0-18.27,3.15-18.27,7.5c0,4.35,4.05,7.5,18.27,7.5c14.22,0,18.27-3.15,18.27-7.5
			C67.28,27,63.23,23.86,49.01,23.86z M49.01,32.86c-9.44,0-10.73-0.6-10.73-1.51c0-0.91,1.29-1.51,10.73-1.51
			c9.44,0,10.73,0.6,10.73,1.51C59.74,32.26,58.45,32.86,49.01,32.86z"/>
		<path d="M50.61,1.37c1.47-0.22,5.34-0.22,6.81,0c0.04,0.78,0.09,4.09,0.09,7.93h2.11c0-3.92,0.04-7.33,0.04-8.1
			c1.47-0.26,5.52-0.26,6.98,0c0.26,1.9,0.26,18.74,0,22.06c-1.38,0.22-5.43,0.22-6.98,0l-0.04-7.37H57.5c0,2.97-0.04,5.52-0.09,6.63
			c-1.25,0.26-5.13,0.26-6.81,0C50.43,19.21,50.43,3.18,50.61,1.37z"/>
		<path d="M69.68,14.81c0.73-0.04,3.75-0.09,7.54-0.09c0-1.51,0-3.1,0.09-4.27c1.55-0.17,5.82-0.17,7.28,0
			c0.09,1.12,0.09,2.71,0.09,4.27c5.69,0,11.07,0.04,12.28,0.09c0.13,2.03,0.22,4.91,0,6.72c-2.67,0.09-25.08,0.09-27.27,0
			C69.46,19.64,69.46,16.79,69.68,14.81z"/>
		<path d="M71.06,1.8c2.2-0.34,22.54-0.34,24.43,0c0.17,1.77,0.17,9.95,0,10.9c-1.77,0.13-5.56,0.13-7.37,0c0-0.82-0.04-3.1,0-4.35
			c-1.94,0.13-15.12,0.13-17.06,0C70.89,7.31,70.89,3.05,71.06,1.8z"/>
		<path d="M83.29,23c-8.7,0-13.36,2.8-13.36,8.14s4.65,8.14,13.36,8.14c8.7,0,13.36-2.8,13.36-8.14S92,23,83.29,23z M83.29,33.21
			c-3.79,0-5.86-0.69-5.86-2.07s2.07-2.07,5.86-2.07c3.79,0,5.86,0.69,5.86,2.07S87.09,33.21,83.29,33.21z"/>
	</g>
</svg>
