<?xml version="1.0" encoding="utf-8"?>
<!-- Generator: Adobe Illustrator 23.0.3, SVG Export Plug-In . SVG Version: 6.00 Build 0)  -->
<svg version="1.1" id="레이어_1" xmlns="http://www.w3.org/2000/svg" xmlns:xlink="http://www.w3.org/1999/xlink" x="0px"
	 y="0px" viewBox="0 0 265.1 25.1" style="enable-background:new 0 0 265.1 25.1;" xml:space="preserve">
<path d="M13.5,11.4c0.4-0.1,0.6-0.4,0.5-0.8c-0.1-0.3-0.4-0.5-0.8-0.4c-1.7,0.6-3.9,1-5.9,1c-2.1,0-3-0.6-3-2.5
	c0-1.1,0.3-2.8,0.9-4.2h7c0.4,0,0.6-0.2,0.6-0.6c0-0.3-0.2-0.5-0.6-0.5H2.9c-0.4,0-0.6,0.2-0.6,0.6c0,0.4,0.2,0.6,0.5,0.6h0.9
	C3.3,5.9,3,7.5,3,8.7c0,2.7,1.5,3.6,4.3,3.6C9.3,12.3,11.7,12.1,13.5,11.4z"/>
<path d="M16.1,15.7c-2.3-0.1-5.6-0.2-8.7,0c-0.3,0-0.5,0.2-0.5,0.6c0,0.4,0.2,0.6,0.6,0.6c3-0.2,6.3-0.1,8.3,0
	c0.8,0,1.1,0.4,1.1,1.1c0,1.4-0.1,2.8-0.4,4.5c-0.1,0.4,0.2,0.6,0.6,0.6c0.3,0,0.5-0.1,0.6-0.5c0.4-1.7,0.5-3.1,0.5-4.6
	C18.1,16.5,17.5,15.7,16.1,15.7z"/>
<path d="M17.6,1C17.2,1,17,1.2,17,1.5v5.2h-5.4c-0.3,0-0.5,0.2-0.5,0.5c0,0.4,0.2,0.6,0.5,0.6H17v5.8c0,0.3,0.3,0.5,0.6,0.5
	c0.4,0,0.6-0.2,0.6-0.6V1.5C18.2,1.2,18,1,17.6,1z"/>
<path d="M40.9,11.5h-19c-0.3,0-0.5,0.2-0.5,0.6c0,0.4,0.2,0.6,0.6,0.6h8.9v2.8c-3.3,0.1-5.2,1.5-5.2,3.8c0,2.4,2.1,3.8,5.8,3.8
	c3.8,0,5.8-1.4,5.8-3.8c0-2.3-1.9-3.7-5.2-3.8v-2.8h8.9c0.4,0,0.6-0.2,0.6-0.5C41.5,11.7,41.3,11.5,40.9,11.5z M36.1,19.2
	c0,1.7-1.5,2.7-4.7,2.7c-3.2,0-4.7-1-4.7-2.7c0-1.7,1.6-2.7,4.7-2.7C34.6,16.5,36.1,17.5,36.1,19.2z"/>
<path d="M24.8,9.1h13.2c0.3,0,0.6-0.2,0.6-0.6c0-0.3-0.2-0.5-0.6-0.5h-3.8c0.9-1.3,1.1-2.8,1.1-3.6c0-0.3-0.2-0.5-0.6-0.5
	c-0.4,0-0.6,0.2-0.6,0.5c0,0.6-0.2,2.3-1.3,3.5h-8c-0.4,0-0.6,0.2-0.6,0.6S24.4,9.1,24.8,9.1z"/>
<path d="M25.1,3.4h2.5c0,1.5,0.1,2.5,0.4,3.6c0.1,0.3,0.2,0.4,0.5,0.4c0.4,0,0.7-0.3,0.6-0.7c-0.3-1.1-0.3-2-0.3-3.3h9
	c0.3,0,0.6-0.2,0.6-0.6c0-0.3-0.2-0.5-0.6-0.5H25.1c-0.4,0-0.6,0.2-0.6,0.5C24.5,3.1,24.7,3.4,25.1,3.4z"/>
<path d="M61.4,18h-8.9v-3.3c0-0.3-0.2-0.5-0.6-0.5c-0.4,0-0.6,0.2-0.6,0.5V18h-8.9c-0.3,0-0.5,0.2-0.5,0.6c0,0.4,0.2,0.6,0.6,0.6h19
	c0.4,0,0.6-0.2,0.6-0.5C62,18.2,61.8,18,61.4,18z"/>
<path d="M45.1,14.6c4-0.9,6.7-2,8.2-3.3c1.9,1,4.2,2.5,5.4,3.3c0.4,0.3,0.9,0,0.9-0.5c0-0.2-0.1-0.3-0.3-0.5
	c-1.2-0.8-3.5-2.3-5.1-3.2c0.7-0.8,0.9-1.8,0.8-2.7c-0.2-2-1.8-2.5-4.6-2.5c-1.6,0-3.3,0.2-4.7,0.5c-0.3,0.1-0.5,0.2-0.5,0.6
	c0,0.4,0.3,0.6,0.6,0.6c1.6-0.3,3.1-0.6,4.6-0.5c2.5,0,3.3,0.4,3.4,1.6c0.2,2-2.2,4.1-9.1,5.6c-0.3,0.1-0.5,0.3-0.4,0.6
	C44.3,14.5,44.7,14.7,45.1,14.6z"/>
<path d="M47.8,3.1c1.6,0.5,3.8,0.7,6.3,0.7c0.3,0,0.5-0.2,0.5-0.6c0-0.3-0.2-0.5-0.5-0.5c-2.4,0-4.5-0.2-5.9-0.6
	c-0.3-0.1-0.8,0-0.8,0.5C47.4,2.8,47.5,3,47.8,3.1z"/>
<path d="M73.3,4.3c-3,0-5.2,2.1-5.2,5.8s2.2,5.9,5.2,5.9s5.2-2.2,5.2-5.9S76.3,4.3,73.3,4.3z M73.3,14.9c-2.5,0-4.1-1.8-4.1-4.7
	s1.6-4.7,4.1-4.7s4.1,1.8,4.1,4.7S75.8,14.9,73.3,14.9z"/>
<path d="M87,9.6l-3.7,0V1.9c0-0.3-0.2-0.5-0.6-0.5c-0.4,0-0.6,0.2-0.6,0.5v18.4c0,0.3,0.3,0.5,0.6,0.5c0.4,0,0.6-0.2,0.6-0.6v-9.6
	l3.7,0c0.3,0,0.5-0.2,0.5-0.6C87.5,9.8,87.3,9.6,87,9.6z"/>
<path d="M93.8,4.3c-3,0-5.2,2.1-5.2,5.8s2.2,5.9,5.2,5.9s5.2-2.2,5.2-5.9S96.8,4.3,93.8,4.3z M93.8,14.9c-2.5,0-4.1-1.8-4.1-4.7
	s1.6-4.7,4.1-4.7s4.1,1.8,4.1,4.7S96.3,14.9,93.8,14.9z"/>
<path d="M104.1,1.5c-0.4,0-0.6,0.2-0.6,0.5v18.4c0,0.3,0.3,0.5,0.6,0.5c0.4,0,0.6-0.2,0.6-0.6V1.9C104.7,1.7,104.5,1.5,104.1,1.5z"
	/>
<path d="M127.5,11.1h-19c-0.3,0-0.5,0.2-0.5,0.6c0,0.4,0.2,0.6,0.6,0.6h19c0.4,0,0.6-0.2,0.6-0.5C128,11.3,127.8,11.1,127.5,11.1z"
	/>
<path d="M124.2,21.4c-2.1,0.5-5.6,0.6-7.5,0.5c-2.5,0-3.2-0.3-3.2-1c0-0.5,0.2-1.1,0.6-1.8c2.8,0,6,0,8.9,0c0.7,0,0.8-0.2,0.9-0.6
	c0.2-0.9,0.3-1.8,0.1-2.8c-0.1-0.5-0.6-0.7-1.1-0.8c-2.4-0.4-7-0.4-10.4-0.2c-0.3,0-0.6,0.2-0.6,0.6c0,0.4,0.2,0.6,0.6,0.6
	c3.4-0.2,7.7-0.2,9.9,0.1c0.4,0,0.4,0.3,0.4,0.6c0,0.3,0,1-0.1,1.5c-2.9,0.1-5.8,0-10.7,0c-0.3,0-0.5,0.2-0.5,0.6s0.2,0.6,0.6,0.6
	h0.7c-0.3,0.5-0.5,1.2-0.5,1.8c0,1.6,1.5,2,4.5,2c2,0,5.6-0.1,7.7-0.5c0.3-0.1,0.5-0.4,0.4-0.7C124.8,21.4,124.5,21.3,124.2,21.4z"
	/>
<path d="M112.1,3.4h0.9c-0.5,0.9-0.7,1.8-0.7,2.4c0,2.3,1.6,3,5.3,3c2.8,0,4.9-0.2,6.7-0.5c0.3-0.1,0.5-0.3,0.5-0.6
	c0-0.4-0.3-0.6-0.6-0.5c-1.7,0.3-3.8,0.5-6.6,0.5c-3.1,0-4.2-0.4-4.2-1.9c0-0.6,0.2-1.5,0.7-2.5h9.6c0.4,0,0.6-0.2,0.6-0.6
	c0-0.3-0.2-0.5-0.6-0.5h-11.6c-0.4,0-0.6,0.2-0.6,0.6C111.5,3.2,111.7,3.4,112.1,3.4z"/>
<path d="M143.3,15.2c-3.4,0.9-10.4,1.1-13.6,1.1c-0.3,0-0.4,0.2-0.4,0.6c0,0.3,0.2,0.6,0.5,0.6c3.5,0,10.4-0.3,13.8-1.2
	c0.4-0.1,0.5-0.3,0.5-0.6C144,15.3,143.7,15.1,143.3,15.2z"/>
<path d="M136.6,12.5c2.9,0,5.3-1.6,5.3-4.7s-2.4-4.7-5.3-4.7c-2.9,0-5.3,1.5-5.3,4.7S133.7,12.5,136.6,12.5z M136.6,4.2
	c2.3,0,4.1,1.2,4.1,3.6s-1.8,3.6-4.1,3.6c-2.4,0-4.2-1.3-4.2-3.6S134.2,4.2,136.6,4.2z"/>
<path d="M146,1.5c-0.4,0-0.6,0.2-0.6,0.5v18.4c0,0.3,0.3,0.5,0.6,0.5c0.4,0,0.6-0.2,0.6-0.6V1.9C146.6,1.7,146.3,1.5,146,1.5z"/>
<path d="M166,5.6c0-0.3-0.2-0.5-0.6-0.5h-11.4c-0.3,0-0.5,0.2-0.5,0.5s0.2,0.6,0.5,0.6l11.4-0.1C165.8,6.2,166,6,166,5.6z"/>
<path d="M164.6,10.8c0-2.1-1.8-3.4-4.6-3.4s-4.6,1.3-4.6,3.4c0,2.1,1.8,3.4,4.6,3.4S164.6,13,164.6,10.8z M156.5,10.8
	c0-1.4,1.1-2.3,3.4-2.3s3.4,0.9,3.4,2.3c0,1.4-1.1,2.3-3.4,2.3S156.5,12.2,156.5,10.8z"/>
<path d="M157.5,3.2c1.3,0.4,2.9,0.6,4.8,0.6c0.3,0,0.5-0.2,0.5-0.6c0-0.3-0.2-0.5-0.5-0.5c-1.8,0-3.4-0.2-4.5-0.6
	c-0.3-0.1-0.8,0-0.8,0.5C157.1,3,157.2,3.1,157.5,3.2z"/>
<path d="M168,16.2c-2.3-0.1-5.6-0.1-8.7,0c-0.3,0-0.5,0.2-0.5,0.6c0,0.4,0.2,0.6,0.6,0.6c3-0.1,6.3-0.2,8.3,0c0.8,0,1.1,0.4,1.1,1.1
	c0,1.2-0.1,2.5-0.4,4c-0.1,0.4,0.2,0.6,0.6,0.6c0.3,0,0.5-0.1,0.6-0.5c0.3-1.5,0.5-2.8,0.5-4.2C170,17,169.3,16.2,168,16.2z"/>
<path d="M173.5,8.1l-3.7,0V1.5c0-0.3-0.2-0.5-0.6-0.5c-0.4,0-0.6,0.2-0.6,0.5v12.7c0,0.3,0.3,0.5,0.6,0.5c0.4,0,0.6-0.2,0.6-0.6V9.3
	l3.7,0c0.3,0,0.5-0.2,0.5-0.6C174.1,8.4,173.9,8.1,173.5,8.1z"/>
<path d="M193.5,18h-7.9c0.2-2.2,0.3-4.7,0.3-6.8c0-0.3-0.2-0.5-0.6-0.5c-0.3,0-0.5,0.2-0.5,0.5c0,2.2-0.1,4.6-0.3,6.8h-3.5
	c-0.1-2.2-0.2-4.7-0.2-6.8c0-0.3-0.2-0.5-0.5-0.5c-0.4,0-0.6,0.2-0.6,0.5c0,2.1,0.1,4.6,0.2,6.8h-5.2c-0.3,0-0.5,0.2-0.5,0.6
	c0,0.4,0.2,0.6,0.6,0.6h19c0.4,0,0.6-0.2,0.6-0.5C194.1,18.2,193.9,18,193.5,18z"/>
<path d="M178.2,4.8c1.9-0.2,3.5-0.4,5.3-0.4c2,0,3,0.1,3.9,0.4c1.2,0.4,1.7,1.3,1.7,2.4c0,1.7-0.4,4.1-1.2,6.2
	c-0.1,0.4,0.1,0.7,0.6,0.7c0.3,0,0.4-0.1,0.6-0.5c0.8-2.2,1.2-4.7,1.2-6.4c0-1.9-0.9-3-2.7-3.5c-1-0.3-2.5-0.4-4.1-0.4
	c-1.8,0-3.5,0.2-5.4,0.4c-0.3,0-0.5,0.3-0.5,0.6C177.6,4.7,177.8,4.9,178.2,4.8z"/>
<path d="M204.6,3.9c-1.1,0-2.1,0.1-3.4,0.3c-0.3,0-0.5,0.2-0.5,0.6c0,0.4,0.2,0.6,0.6,0.6c1.3-0.2,2.3-0.3,3.3-0.3
	c2.6,0.1,4,0.7,4,2.7c0,2.7-2.1,5.3-7.2,8.1c-0.3,0.1-0.4,0.3-0.4,0.5c0,0.5,0.5,0.7,1,0.5c5.2-2.7,7.8-5.9,7.8-9
	C209.8,4.8,207.7,4,204.6,3.9z"/>
<path d="M219,9.6l-3.7,0V1.9c0-0.3-0.2-0.5-0.6-0.5c-0.4,0-0.6,0.2-0.6,0.5v18.4c0,0.3,0.3,0.5,0.6,0.5c0.4,0,0.6-0.2,0.6-0.6v-9.6
	l3.7,0c0.3,0,0.5-0.2,0.5-0.6C219.6,9.8,219.4,9.6,219,9.6z"/>
<path d="M239,12.4h-19c-0.3,0-0.5,0.2-0.5,0.6c0,0.4,0.2,0.6,0.6,0.6h19c0.4,0,0.6-0.2,0.6-0.5C239.6,12.6,239.4,12.4,239,12.4z"/>
<path d="M235.7,21c-1.9,0.5-3.9,0.7-7.2,0.7c-3.2,0-4.4-1.1-3.5-5.4c0.1-0.3-0.2-0.6-0.6-0.6c-0.4,0-0.6,0.2-0.7,0.6
	c-0.9,4.7,0.5,6.5,4.7,6.5c3.4,0,5.6-0.2,7.4-0.7c0.3-0.1,0.5-0.2,0.5-0.6C236.3,21.2,236,20.9,235.7,21z"/>
<path d="M228.4,9.4c3,0,5.5-0.2,7.3-0.7c0.3-0.1,0.5-0.2,0.5-0.6c0-0.3-0.3-0.6-0.7-0.5c-1.9,0.5-3.8,0.7-7.1,0.7
	c-3,0-4.2-1.1-3.3-5.6c0.1-0.3-0.2-0.6-0.6-0.6c-0.4,0-0.6,0.2-0.7,0.6C223,7.6,224.4,9.4,228.4,9.4z"/>
<path d="M256.7,9.9c0.4-0.1,0.5-0.2,0.5-0.6c0-0.3-0.3-0.6-0.7-0.6c-1.6,0.3-3.4,0.7-5.5,0.7c-2.4,0-3.5-0.5-3.6-2.7
	c0-1.3,0.1-2.3,0.3-3.6c0-0.3-0.2-0.6-0.6-0.6c-0.4,0-0.6,0.2-0.6,0.6c-0.2,1.2-0.3,2.2-0.3,3.5c0,3,1.7,3.8,4.7,3.8
	C253.4,10.5,255.1,10.2,256.7,9.9z"/>
<path d="M260.8,21.2c-1.8,0.4-3.6,0.7-6.4,0.7c-2.9,0-3.6-0.4-3.7-1.3c0-0.6,0.2-1.3,0.6-2.2c2.2,0,5.7,0,8,0c0.7,0,0.8-0.3,0.9-0.5
	c0.2-1.1,0.3-2.3,0.2-3.5c0-0.5-0.6-0.9-1.3-1c-2.4-0.3-6-0.3-9.2-0.1c-0.3,0-0.6,0.2-0.6,0.6c0,0.4,0.2,0.6,0.6,0.6
	c3-0.2,6.9-0.1,8.8,0.1c0.4,0,0.6,0.2,0.6,0.4c0,0.5,0,1.7-0.1,2.3c-2.5,0.1-5.6,0-9.8,0c-0.3,0-0.5,0.2-0.5,0.6
	c0,0.4,0.2,0.6,0.6,0.6h0.7c-0.3,0.7-0.6,1.5-0.6,2.3c0,1.8,1.8,2.3,4.9,2.3c2.8,0,4.8-0.2,6.6-0.6c0.3-0.1,0.5-0.4,0.4-0.7
	C261.4,21.3,261.1,21.2,260.8,21.2z"/>
<path d="M264.5,5.9l-3.7,0V1.5c0-0.3-0.2-0.5-0.6-0.5c-0.4,0-0.6,0.2-0.6,0.5v9.8c0,0.3,0.3,0.5,0.6,0.5c0.4,0,0.6-0.2,0.6-0.6V7.1
	l3.7,0c0.3,0,0.5-0.2,0.5-0.6C265.1,6.1,264.9,5.9,264.5,5.9z"/>
</svg>
